<svg preserveAspectRatio="none" overflow="visible" style="display: block;" width="417.4" height="142.726" viewBox="0 0 417.4 142.726" fill="none" xmlns="http://www.w3.org/2000/svg">
<path id="reward-curve" d="M0.738654 131.164L2.74219 142.551L4.73551 134.203L6.73905 141.603L8.74259 128.381L10.7359 128.322L12.7394 124.432L14.743 126.263L16.7363 123.919L18.7398 129.091L20.7434 127.155L22.7367 118.586L24.7402 123.329L26.7335 109.904L28.7371 111.383L30.7406 115.915L32.7339 115.297L34.7375 115.002L36.741 105.361L38.7343 99.7532L40.7379 99.5143L42.7414 104.869L44.7347 104.837L46.7383 99.2508L48.7418 91.5491L50.7351 93.9348L52.7387 89.3286L54.7422 95.5686L56.7355 90.9553L58.739 90.5548L60.7426 90.2316L62.7359 91.1415L64.7394 93.3691L66.743 96.9283L68.7363 91.5351L70.7398 96.4364L72.7332 94.5462L74.7367 87.0904L76.7402 85.8923L78.7335 82.4877L80.7371 79.8948L82.7406 85.2248L84.7339 79.0234L86.7375 86.5705L88.741 84.6661L90.7343 89.6729L92.7379 88.6575L94.7414 77.3966L96.7347 66.4485L98.7383 64.6285L100.742 70.995L102.735 74.4804L104.739 66.5504L106.742 71.1777L108.736 72.8993L110.739 68.1244L112.743 68.3072L114.736 63.599L116.739 62.3798L118.733 64.1858L120.736 63.0404L122.74 63.0333L124.733 60.1733L126.737 69.8039L128.74 61.8212L130.734 59.6252L132.737 55.7041L134.741 54.239L136.734 52.8652L138.737 55.4476L140.741 55.5495L142.734 62.5379L144.738 62.5977L146.741 57.7068L148.735 66.6593L150.738 66.329L152.742 61.0447L154.735 61.4698L156.739 74.3855L158.742 76.7993L160.736 65.5736L162.739 53.2833L164.732 50.223L166.736 48.6876L168.739 41.2811L170.733 43.08L172.736 48.9582L174.74 47.5387L176.733 38.8181L178.737 45.5922L180.74 50.0579L182.734 56.4103L184.737 52.4646L186.741 55.1947L188.734 50.0403L190.737 43.9268L192.741 37.9468L194.734 37.1632L196.738 39.5454L198.741 44.9387L200.735 41.8187L202.738 45.276L204.742 41.8292L206.735 44.6154L208.739 45.2022L210.732 40.5854L212.736 46.6041L214.739 38.1927L216.732 38.5124L218.736 38.4632L220.739 30.1959L222.733 34.0257L224.736 33.9308L226.74 39.0359L228.733 43.7195L230.737 47.0397L232.74 44.9738L234.734 43.1011L236.737 34.5351L238.741 35.4803L240.734 39.0219L242.737 38.92L244.741 28.8291L246.734 33.8078L248.738 32.7046L250.741 30.8178L252.735 35.5822L254.738 40.0022L256.732 36.5765L258.735 39.3135L260.739 30.2556L262.732 35.7754L264.736 29.0997L266.739 32.4973L268.732 27.494L270.736 28.0035L272.739 32.0475L274.733 30.5473L276.736 34.5702L278.74 32.2267L280.733 37.3178L282.737 35.2449L284.74 30.4875L286.734 38.4562L288.737 38.3824L290.741 32.0792L292.734 31.134L294.737 36.1689L296.741 34.9532L298.734 32.2724L300.738 27.4237L302.731 28.9908L304.735 28.3935L306.738 22.8351L308.732 31.0286L310.735 31.7735L312.739 29.9289L314.732 29.834L316.736 32.2794L318.739 27.7927L320.732 26.5172L322.736 24.9326L324.739 26.5313L326.733 26.9529L328.736 21.8478L330.74 22.9159L332.733 25.3675L334.737 23.7407L336.74 20.5329L338.734 21.9243L340.737 17.9926L342.741 13.4883L344.734 13.9485L346.737 23.3578L348.731 19.5842L350.734 23.4878L352.738 14.9499L354.731 16.8761L356.735 18.6224L358.738 20.4318L360.732 21.6124L362.735 11.2545L364.739 9.20259L366.732 13.2115L368.736 17.354L370.739 24.1667L372.732 27.2727L374.736 22.7367L376.739 19.1529L378.733 15.9626L380.736 17.6983L382.74 15.2458L384.733 15.9521L386.737 11.1034L388.74 9.87718L390.734 9.7261L392.737 7.83933L394.73 7.01014L396.734 8.02906L398.737 9.88772L400.731 2.55148L402.734 8.38042L404.738 9.59961L406.731 8.13447L408.735 4.31878L410.738 6.88717L412.732 7.60041L414.735 10.0388L416.739 6.2969" stroke="white" stroke-width="1"/>
</svg>
